<?xml version="1.0" encoding="UTF-8"?>
<svg width="294px" height="73px" viewBox="0 0 294 73" version="1.1" xmlns="http://www.w3.org/2000/svg" xmlns:xlink="http://www.w3.org/1999/xlink">
    <!-- Generator: Sketch 52.6 (67491) - http://www.bohemiancoding.com/sketch -->
    <title>marfeel_logo_rgb</title>
    <desc>Created with Sketch.</desc>
    <defs>
        <linearGradient x1="34.9046773%" y1="84.6322628%" x2="64.2426746%" y2="16.9607798%" id="linearGradient-1">
            <stop stop-color="#A6D951" offset="0%"></stop>
            <stop stop-color="#86C424" offset="100%"></stop>
        </linearGradient>
        <linearGradient x1="80.9424523%" y1="0.195636354%" x2="32.3019863%" y2="78.545027%" id="linearGradient-2">
            <stop stop-color="#FFC551" offset="0%"></stop>
            <stop stop-color="#F7941E" offset="100%"></stop>
        </linearGradient>
        <linearGradient x1="-357.173913%" y1="144.68306%" x2="509.565761%" y2="-73.1898907%" id="linearGradient-3">
            <stop stop-color="#FF8B00" offset="0%"></stop>
            <stop stop-color="#90D026" offset="100%"></stop>
        </linearGradient>
        <linearGradient x1="-115.66701%" y1="121.967769%" x2="432.369416%" y2="-97.7016529%" id="linearGradient-4">
            <stop stop-color="#FF8B00" offset="0%"></stop>
            <stop stop-color="#90D026" offset="100%"></stop>
        </linearGradient>
        <linearGradient x1="28.1484436%" y1="65.2019074%" x2="338.421012%" y2="-152.073569%" id="linearGradient-5">
            <stop stop-color="#FF8B00" offset="0%"></stop>
            <stop stop-color="#90D026" offset="100%"></stop>
        </linearGradient>
        <linearGradient x1="-416.488316%" y1="240.206336%" x2="131.54811%" y2="20.5366391%" id="linearGradient-6">
            <stop stop-color="#FF8B00" offset="0%"></stop>
            <stop stop-color="#90D026" offset="100%"></stop>
        </linearGradient>
        <linearGradient x1="-326.587285%" y1="204.187879%" x2="221.454296%" y2="-15.4856749%" id="linearGradient-7">
            <stop stop-color="#FF8B00" offset="0%"></stop>
            <stop stop-color="#90D026" offset="100%"></stop>
        </linearGradient>
        <linearGradient x1="-2064.71216%" y1="203.759725%" x2="90.4040541%" y2="47.0996071%" id="linearGradient-8">
            <stop stop-color="#FF8B00" offset="0%"></stop>
            <stop stop-color="#90D026" offset="100%"></stop>
        </linearGradient>
        <linearGradient x1="-392.428311%" y1="135.979633%" x2="335.784475%" y2="-10.3350459%" id="linearGradient-9">
            <stop stop-color="#FF8B00" offset="0%"></stop>
            <stop stop-color="#90D026" offset="100%"></stop>
        </linearGradient>
    </defs>
    <g id="Page-1" stroke="none" stroke-width="1" fill="none" fill-rule="evenodd">
        <g id="marfeel_logo_rgb">
            <path d="M32.1,26 L39.4,53.4 C40.1,56.3 38.4,59.3 35.4,60 L11.7,66.4 C9.1,67.1 7.3,70.4 8,73 L0.6,45.5 C-0.1,42.6 1.6,39.6 4.6,38.9 L28.3,32.6 C31.2,31.9 32.8,28.9 32.1,26 Z" id="Path" fill="url(#linearGradient-1)"></path>
            <path d="M61.7,0.1 L69.2,27.5 C69.9,30.4 68.2,33.4 65.2,34.1 L41.6,40.4 C38.7,41.1 37.1,44.1 37.6,47 L30.3,19.7 C29.6,16.8 31.3,13.8 34.3,13.1 L58,6.8 C60.8,6.2 62.7,3 61.7,0.1 Z" id="Path" fill="url(#linearGradient-2)"></path>
            <path d="M195.7,26.6 C193.1,26.6 190.4,27.3 188.2,28.8 C187.8,27.6 186.3,26.6 184.8,26.6 C182.9,26.6 181.1,28.4 181.1,30.3 L181.1,59.5 C181.1,61.4 182.9,63.2 184.8,63.2 C186.7,63.2 188.5,61.4 188.5,59.5 L188.5,41.1 C188.5,37.1 191.7,33.8 195.8,33.8 C197.7,33.8 199.5,32 199.5,30.1 C199.5,28.2 197.6,26.6 195.7,26.6 Z" id="Path" fill="url(#linearGradient-3)"></path>
            <path d="M170.2,26.6 L159.2,26.6 C151.1,26.6 144.7,33.2 144.7,41.1 L144.7,48.4 C144.7,56.5 151.3,62.9 159.2,62.9 C161.8,62.9 164.5,62.2 166.7,60.7 C167.1,61.9 168.6,62.9 170.1,62.9 C172,62.9 173.8,61.1 173.8,59.2 L173.8,30.2 C173.8,28.2 172.1,26.6 170.2,26.6 Z M166.5,48.1 C166.5,52.1 163.3,55.4 159.2,55.4 C155.1,55.4 151.9,52.2 151.9,48.1 L151.9,40.8 C151.9,36.8 155.1,33.5 159.2,33.5 L166.5,33.5 L166.5,48.1 Z" id="Shape" fill="url(#linearGradient-4)" fill-rule="nonzero"></path>
            <path d="M123,26.6 C118.6,26.6 114.8,28.5 112,31.4 C109.4,28.5 105.4,26.6 101,26.6 C98.4,26.6 95.7,27.3 93.5,28.8 C93.1,27.6 91.6,26.6 90.1,26.6 C88.2,26.6 86.4,28.4 86.4,30.3 L86.4,59.5 C86.4,61.4 88.2,63.2 90.1,63.2 C92,63.2 93.8,61.4 93.8,59.5 L93.8,41.1 C93.8,37.1 97,33.8 101.1,33.8 C105.1,33.8 108.4,37 108.4,41.1 L108.4,59.6 C108.4,61.5 110.2,63.3 112.1,63.3 C114,63.3 115.8,61.5 115.8,59.6 L115.8,41.1 C115.8,37.1 119,33.8 123.1,33.8 C127.2,33.8 130.4,37 130.4,41.1 L130.4,59.6 C130.4,61.5 132.2,63.3 134.1,63.3 C136,63.3 137.8,61.5 137.8,59.6 L137.8,40.9 C137.3,32.9 130.7,26.6 123,26.6 Z" id="Path" fill="url(#linearGradient-5)"></path>
            <path d="M268.2,26.6 C260.1,26.6 253.7,33.2 253.7,41.1 L253.7,48.4 C253.7,56.5 260.3,62.9 268.2,62.9 L275.5,62.9 C277.4,62.9 279.2,61.1 279.2,59.2 C279.2,57.3 277.4,55.5 275.5,55.5 L268.2,55.5 C264.2,55.5 260.9,52.3 260.9,48.2 L279.1,48.2 C281,48.2 282.8,46.4 282.8,44.5 L282.8,40.8 C282.6,33 276.3,26.6 268.2,26.6 Z M261,41.1 C261,37.1 264.2,33.8 268.3,33.8 C272.4,33.8 275.6,37 275.6,41.1 L261,41.1 Z" id="Shape" fill="url(#linearGradient-6)" fill-rule="nonzero"></path>
            <path d="M235.5,26.6 C227.4,26.6 221,33.2 221,41.1 L221,48.4 C221,56.5 227.6,62.9 235.5,62.9 L242.8,62.9 C244.7,62.9 246.5,61.1 246.5,59.2 C246.5,57.3 244.7,55.5 242.8,55.5 L235.5,55.5 C231.5,55.5 228.2,52.3 228.2,48.2 L246.4,48.2 C248.3,48.2 250.1,46.4 250.1,44.5 L250.1,40.8 C250.1,33 243.5,26.6 235.5,26.6 Z M228.2,41.1 C228.2,37.1 231.4,33.8 235.5,33.8 C239.6,33.8 242.8,37 242.8,41.1 L228.2,41.1 Z" id="Shape" fill="url(#linearGradient-7)" fill-rule="nonzero"></path>
            <path d="M289.9,11.9 C288,11.9 286.2,13.7 286.2,15.6 L286.2,59.1 C286.2,61 288,62.8 289.9,62.8 C291.8,62.8 293.6,61 293.6,59.1 L293.6,15.6 C293.6,13.7 291.8,11.9 289.9,11.9 Z" id="Path" fill="url(#linearGradient-8)"></path>
            <path d="M215.8,26.6 L209.9,26.6 L209.9,22.9 C209.9,18.9 213.1,15.6 217.2,15.6 L220.9,15.6 C222.8,15.6 224.6,13.8 224.6,11.9 C224.6,10 222.8,8.2 220.9,8.2 L217.2,8.2 C209.1,8.2 202.7,14.8 202.7,22.7 L202.7,59 C202.7,60.9 204.5,62.7 206.4,62.7 C208.3,62.7 210.1,60.9 210.1,59 L210.1,33.8 L216,33.8 C217.9,33.8 219.7,32 219.7,30.1 C219.7,28.2 218,26.6 215.8,26.6 Z" id="Path" fill="url(#linearGradient-9)"></path>
        </g>
    </g>
</svg>