<?xml version="1.0" encoding="utf-8"?>
<!-- Generator: Adobe Illustrator 17.0.0, SVG Export Plug-In . SVG Version: 6.00 Build 0)  -->
<!DOCTYPE svg PUBLIC "-//W3C//DTD SVG 1.1//EN" "http://www.w3.org/Graphics/SVG/1.1/DTD/svg11.dtd">
<svg version="1.1" id="Layer_1" xmlns="http://www.w3.org/2000/svg" xmlns:xlink="http://www.w3.org/1999/xlink" x="0px" y="0px"
	 width="1010px" height="112px" viewBox="0 0 1010 112" enable-background="new 0 0 1010 112" xml:space="preserve">
<g>
	<path fill="#F2F2F2" d="M158.588,46.523l-0.715-9.428c-1.338,0.918-2.788,1.939-3.974,2.852l3.622,43.011L158.588,46.523z"/>
	<path fill="#F2F2F2" d="M173.948,65.679l-4.024-26.71c-0.601-0.302-1.229-0.62-1.87-0.948l1.254,52.129L173.948,65.679z"/>
	<path fill="#F2F2F2" d="M173.955,41c-0.439-0.239-1.543-0.786-2.937-1.482l3.047,20.223C174.072,50.127,174.048,42.213,173.955,41z
		"/>
	<path fill="#F2F2F2" d="M912.227,108.301c2.163-1.45,3.454-3.287,3.596-3.532c-0.274-0.205-1.061-0.719-1.609-0.958
		c-0.373,0.447-1.072,1.17-1.988,1.909v-4.071c2.163-1.45,3.454-3.287,3.596-3.532c-0.274-0.205-1.061-0.719-1.609-0.958
		c-0.687,0.824-2.472,2.579-4.708,3.653h-5.28v0.387c-3.844-1.831-10.598-8.21-13.663-10.574c-3.594-2.773-5.24-3.7-8.525-3.7
		s-6.059,3.149-6.949,4.039c0.411,0.411,0.993,1.198,1.369,1.575c0.506-0.532,1.836-1.807,3.642-2.436v3.827
		c-2.402,0.845-4.303,2.978-5.011,3.686c0.411,0.411,0.993,1.198,1.369,1.575c0.506-0.532,1.836-1.807,3.642-2.436v4.782
		c-1.11-0.621-2.271-1.318-3.5-2.099c-7.472-4.744-18.417-12.062-23.834-12.062c-3.03,0-6.769,1.85-8.121,3.706
		c0.194,0.391,0.595,1.051,0.977,1.447c0.849-0.708,2.083-2.071,4.727-2.601V93.9c-2.387,0.61-4.734,1.994-5.746,3.383
		c0.194,0.391,0.596,1.051,0.978,1.447c0.854-0.711,2.094-2.086,4.768-2.609v9.825c-11.575-0.876-19.084-1.488-19.5-1.488
		c0-0.957-0.69-18.082-1.289-35.308c1.908-0.288,3.26-0.991,3.26-1.817c0-0.843-1.414-1.556-3.386-1.832
		c-0.041-1.207-0.081-2.407-0.12-3.599c2.034-0.409,3.506-1.531,3.506-2.868c0-1.376-1.562-2.525-3.691-2.901
		c-0.01-0.337-0.021-0.676-0.031-1.009c-0.015-0.5-0.029-0.988-0.043-1.479c2.167-0.294,3.765-1.238,3.765-2.37
		c0-1.153-1.656-2.114-3.887-2.388c-0.034-1.5-0.063-2.929-0.087-4.272c2.498-0.32,5.402-0.693,5.669-0.741c0-0.167,0-0.5,0-0.667
		c-0.285-0.057-3.378-0.972-5.718-1.624c-0.014-0.995-0.026-1.912-0.035-2.757c2.041-0.879,4.597-1.926,5.378-2.16
		c0-0.125,0-0.5,0-0.833c-0.504-0.024-3.122,0.063-5.404,0.148c-0.012-1.677-0.013-2.692-0.013-2.841
		c-0.562,0-0.89-0.015-1.578-0.015c-0.007,0.196-0.007,1.234-0.021,2.919c-0.948,0.038-1.68,0.069-1.901,0.081
		c0.25,1.083,0.573,2.804,0.917,3.894c0.172-0.094,0.507-0.254,0.944-0.452c-0.008,0.494-0.016,1.009-0.026,1.548
		c-0.282-0.072-0.513-0.126-0.667-0.156c-0.252,0.828-0.901,3.339-1.167,4.125c0.152-0.022,0.831-0.109,1.751-0.227
		c-0.033,1.259-0.073,2.593-0.122,3.986c-2.47,0.185-4.366,1.2-4.366,2.435c0,1.202,1.793,2.203,4.169,2.425
		c-0.019,0.411-0.037,0.818-0.057,1.236c-0.018,0.373-0.037,0.753-0.056,1.13c-2.318,0.3-4.055,1.513-4.055,2.968
		c0,1.389,1.59,2.548,3.75,2.912c-0.063,1.17-0.128,2.349-0.193,3.534c-2.06,0.258-3.557,0.985-3.557,1.852
		c0,0.838,1.396,1.548,3.349,1.827c-0.927,16.257-1.988,32.328-1.988,34.464c-1.688,0-8.5-0.083-9.813-0.083c0-2,0-27.979,0-30.729
		c-2.375,0-7.063,0.125-8.938,0.125c0,1.312,0,10.062,0,12.625c-0.812,0-6.25-0.062-6.938-0.062c0-2.875,0.438-5.562-0.938-6.812
		s-4.063,1.625-5.188,2.875s-3.125,1.75-7.375-2.188s-13.25-9.438-20.875-9.688s-7.375,11.875-7.5,14.188
		c-1.938,0-3.563-0.062-4.375-0.062c0-0.938,0-3.938,0-4.875c-0.875,0-6.625,0.062-7.813,0.062c0,1-0.75,22.125-0.75,23.812
		c-0.875,0-4.313,0.125-5.188,0.125c0-1.75,0-76.625,0-80.062c-1.562,0-18.875-0.062-21.125-0.062c0,1.5,0,77.688,0,80.062
		c-2.062,0-4.125,0-5.063,0c0-2.812,0-78.25,0-80.062c-1.312,0-16.25,0.062-17.875,0.062c0,1.375,0,53.125,0,55.938
		c-4,1.938-20.188,9.312-22.063,10.062c0-2.562,0-7.812,0-8.938c-2.313,0-21.751,0-23.876,0c0,1.75-0.438,17.438-0.438,18.875
		c-0.938,0-3.563,0.062-5.25,0.062c0-1.062,0-14.875,0-16.75c-0.875-0.875-6.125-4.562-7.313-5.375
		c-1.188,0.938-5.938,4.188-7.313,5.188c0,1.25,0,15.312,0,16.938c-1.125,0-25.126,0-26.876,0c0-1.812,0-15.688,0-17.062
		c-1,0-23.938,0-24.876,0c0,0.625,0,3.188,0,4.062c0,0-1.5,0-2,0c0-0.562,0-15.25,0-16.062c-0.5,0-7.625,0-9.125,0
		c0,0.75,0,14.125,0,16.312c-0.75-0.375-8.188-3.562-9.875-4.438c-0.124-3.174-1.984-65.524-2.123-67.531
		c0.009-0.009,0.022-0.011,0.031-0.02l0.591-0.591c0.389-0.389,0.389-1.025,0-1.414l-0.591-0.591c-0.389-0.389-1.025-0.389-1.414,0
		l-0.591,0.591c-0.389,0.389-0.389,1.025,0,1.414l0.572,0.572c-0.016,0.103-0.037,0.203-0.037,0.321c0,1.438-2.5,26.062-2.5,28.125
		c-0.375,0-1.188-0.062-1.75-0.062c-0.185-2.098-4.025-36.599-4.301-39.266l0.533-0.533c0.389-0.389,0.389-1.025,0-1.414
		l-0.591-0.591c-0.389-0.389-1.025-0.389-1.414,0l-0.591,0.591c-0.389,0.389-0.389,1.025,0,1.414l0.503,0.503
		c-0.008,0.076-0.014,0.153-0.014,0.233c0,1.438-3.25,55.5-3.25,59.812c-0.5-0.625-4.938-7.25-5.625-8.25
		c-0.438,0.688-4.125,5.812-5.313,7.562c-0.24-2.756-2.892-54.214-3.166-59.399l0.463-0.463c0.389-0.389,0.389-1.025,0-1.414
		l-0.591-0.591c-0.389-0.389-1.025-0.389-1.414,0l-0.591,0.591c-0.389,0.389-0.389,1.025,0,1.414l0.424,0.424l0,0
		c-0.062,1.125-5.063,40.25-5.313,42.688c-0.375,0-0.521-0.021-0.938-0.021c-0.162-1.054-2.654-29.057-2.867-31.627
		c0.013-0.012,0.031-0.016,0.043-0.029l0.591-0.591c0.389-0.389,0.389-1.025,0-1.414l-0.591-0.591c-0.389-0.389-1.025-0.389-1.414,0
		l-0.591,0.591c-0.389,0.389-0.389,1.025,0,1.414l0.591,0.591c0.016,0.016,0.039,0.022,0.056,0.037
		c-0.064,4.658-2.068,79.414-2.068,84.702c-0.304,0-2.504-0.115-5.917-0.309V65.708h-14.25v-7.75h-12.667v17.667h-6.75v-7.667
		H457.92v27.715c-5.697-0.408-9.957-0.754-11.334-0.961v-3.087l-10.813-7.75l-7.75,6.188v-9l-7.438-5.312l-7.438,5.312v7.14
		c-5.669-1.456-10.38-3.002-14.425-4.563c-3.257-2.306-7.055-6.019-6.888-8.265c0.167-2.25,10.167-30.167,10.917-32
		s-0.25-3.083-2.083-3.667c-0.195-0.062-0.489-0.145-0.85-0.243c-0.345-1.496-0.933-3.728-1.328-5.176
		c1.554,0.361,2.832,0.821,3.179,1.168c0.667,0.667,1.667-0.417,1.667-1.167c0-0.705-3.683-2.22-8.417-2.468
		c0-9.719,0-20.704,0-21.616c0-1.583-1-5.833-1.458-6.167c-0.458-0.333-0.625,2.75-0.625,3.75c0,0.624-0.325,13.682-0.569,24.037
		c-4.096,0.249-6.441,1.674-6.515,3.879c-0.047,1.413,3.234,2.879,6.336,3.932c-0.053,2.418-0.086,4.138-0.086,4.651
		c0.667,0.5,2.167,1.833,2.917,2.417c0-0.691,0-3.027,0-6.193c1.17,0.329,2.08,0.547,2.417,0.61c1.333,0.25,3.083,0.5,2.917,1.917
		c-0.151,1.28-10.845,27.796-13.829,34.928c-9.603-5.154-14.79-9.345-26.464-9.345c-3.533,0-7.196,0.441-10.875,1.18v-25.93h4
		v-25.25h-4V4.875h-3v13.75h-4v25.25h4v26.593c-17.062,4.155-33.829,14.143-39.126,17.282c0-2.125,0-13.625,0-15.75
		c-1.125-0.75-5.875-3.875-7.875-5.125c-1.375,1-6.625,5.125-7.875,6c0,1.75,0,5.625,0,7.375c-0.625-0.625-5.625-4.125-7.375-5.625
		c-1.5,0.875-8.5,6.125-10.75,7.75c0,2.875,0,12.75,0,15.75c-0.809-0.261-5.601-2.298-5.875-2.438
		c0.125-15.438-0.75-49.562-1.833-56.926C264.699,34.171,262.208,14,253.332,14c-8.875,0-12.125,18.25-13.25,24.625
		s-2.75,46.125-2.75,53.75c-5.611,1.046-16,5.125-18.251,6.5c-0.302,0-3.047,0-7.042,0V83.958h-14.792v14.917
		c-0.597,0-1.195,0-1.792,0V79.917h-15.084v18.958c-3.719,0-6.213,0-6.417,0c0-1.602,0.061-14.894,0.092-28.354l-4.625,24.393
		l0.095,3.949l-1,0.024L167.041,37.5c-0.726-0.377-1.444-0.755-2.128-1.126v58.668h-1V35.824c-0.863-0.483-1.628-0.937-2.209-1.323
		c-0.402,0.287-1.521,1.027-2.877,1.945l4.439,58.558l-0.997,0.075L159.31,56.05l-1.064,36.37l-1-0.029l0.018-0.602h-0.001
		l-3.605-42.8c-0.255,12.567-0.704,34.285-0.704,38.761c-1.25,0-8.625,0.375-10.875,0.375c0-1.75,0-18,0-20.25
		c-2.75,0-12.375,0-15.125,0c0,5.125,0,26.5,0,30.875c-2.811,0-13.835,0.036-26.17,0.078c1.388-2.688,3.686-7.111,5.038-9.755
		c7.921-2.008,14.168-3.597,14.885-3.808c-1.197-1.077-14.716-13.998-16.69-15.494c-1.615,0.359-43.072,6.281-43.97,6.281
		c-0.06-1.495-1.077-34.277-1.256-35.892c-0.718,0-5.504-0.06-6.281-0.06c0,1.137-0.359,35.354-0.359,36.85
		c0,0-0.778-0.18-1.077-0.18c0-0.897-1.196-39.123-1.196-40.678c-0.718,0-5.085,0.06-6.281,0.06
		c-0.06,1.376-0.598,40.499-0.598,41.695c0,0-0.778,0-0.957,0c0-0.778-0.957-43.669-0.957-45.344c-1.376,0-5.025,0-6.281,0
		c-0.06,1.914-0.718,42.413-0.718,45.344c-3.051,0-2.573,0-4.008,0c0,3.29,0,14.297,0,20.997C22.635,99.202,4.755,107.666,0,112
		h959.368c-13.85-0.226-30.486-0.965-47.141-1.9V108.301z M392.141,37.3c-1.981-0.657-3.504-1.324-3.471-1.841
		c0.065-1.046,1.523-1.523,3.552-1.682C392.193,35.019,392.166,36.201,392.141,37.3z M397.12,38.749
		c-0.702-0.188-1.449-0.391-2.2-0.604c0-1.384,0-2.865,0-4.402c0.709,0.046,1.452,0.14,2.179,0.266
		C397.114,35.356,397.133,37.534,397.12,38.749z M66.163,98.947c-3.273,0.01-5.524,0.017-6.235,0.017c0-0.658,0.12-8.016,0.12-9.691
		c0.464,0.605,3.576,3.722,6.115,6.25C66.163,96.743,66.163,98.047,66.163,98.947z M77.078,98.911
		c-1.755,0.006-3.431,0.012-5.003,0.017c0-0.367,0-0.807,0-1.287c1.334-0.344,3.038-0.779,5.003-1.28
		C77.078,97.299,77.078,98.218,77.078,98.911z M93.917,98.852c-3.698,0.013-7.397,0.026-10.927,0.038c0-1.043,0-2.665,0-4.032
		c3.905-0.991,8.267-2.095,12.601-3.193C95.028,94.061,94.358,96.96,93.917,98.852z M857.725,106.499
		c-1.197-0.089-2.364-0.176-3.5-0.261V96.155c0.999,0.261,2.193,0.72,3.5,1.306V106.499z M857.725,94.812
		c-1.276-0.511-2.449-0.872-3.5-1.067v-3.801c0.997,0.257,2.191,0.712,3.5,1.298V94.812z M864.851,107.02
		c-1.1-0.08-2.187-0.158-3.25-0.236v-7.402c1.074,0.571,2.167,1.178,3.25,1.797V107.02z M864.851,95.125v3.261
		c-1.101-0.63-2.188-1.224-3.25-1.771v-3.457c1.173,0.623,2.369,1.289,3.55,1.967H864.851z M868.726,107.298v-3.843
		c3.098,1.863,5.693,3.507,6.804,4.133c0.122,0.069,0.25,0.143,0.374,0.214C873.452,107.633,871.054,107.464,868.726,107.298z
		 M880.101,107.761c-1.122-0.627-2.296-1.332-3.541-2.122c-2.36-1.498-5.066-3.252-7.834-4.952v-3.458
		c3.116,1.873,5.729,3.529,6.845,4.158c1.422,0.801,2.935,1.716,4.531,2.556L880.101,107.761L880.101,107.761z M886.101,108.493
		c-0.711-0.047-1.42-0.094-2.125-0.141v-2.699c0.695,0.24,1.402,0.447,2.125,0.598V108.493z M886.101,104.189
		c-0.681-0.191-1.389-0.438-2.125-0.74V96.71c0.701,0.232,1.41,0.575,2.125,0.995V104.189z M886.101,94.354
		c-0.69-0.306-1.38-0.505-2.125-0.627v-3.67c0.701,0.232,1.41,0.575,2.125,0.995V94.354z M891.851,108.869
		c-0.626-0.04-1.252-0.08-1.875-0.121v-2.344c0.722-0.114,1.346-0.303,1.875-0.528V108.869z M891.851,104.155
		c-0.601,0.234-1.224,0.388-1.875,0.455v-4.197c0.354,0.265,0.708,0.531,1.063,0.791c0.235,0.172,0.514,0.389,0.812,0.625V104.155z
		 M891.851,98.319c-0.473-0.393-0.913-0.753-1.287-1.042c-0.209-0.161-0.391-0.295-0.588-0.444v-3.071
		c0.354,0.265,0.708,0.531,1.063,0.791c0.235,0.172,0.514,0.389,0.812,0.625V98.319z M895.727,109.115v-4.225
		c2.489,1.883,5.46,3.855,8.25,4.731C901.209,109.456,898.455,109.287,895.727,109.115z M904.227,107.851
		c-2.273-1.083-5.553-3.744-8.5-6.241v-3.371c2.563,1.939,5.639,3.977,8.5,4.81V107.851z"/>
	<path fill="#F2F2F2" d="M1006.304,63.451c-5.459-12.667-24.575-27.076-36.2-27.076c0,4.242,0.083,64.889,0.083,75.625h35.934
		C1011.146,92.835,1011.375,75.217,1006.304,63.451z"/>
</g>
</svg>
